<svg width="14" height="10" viewBox="0 0 14 10" fill="none" xmlns="http://www.w3.org/2000/svg">
<rect width="14" height="10" fill="#BCBABA"/>
<g clip-path="url(#clip0_0_1)">
<rect x="-250" y="-2122" width="1440" height="5189" rx="20" fill="white"/>
<rect x="-249.136" y="-615.719" width="1440.16" height="2083.2" fill="url(#paint0_linear_0_1)"/>
<rect x="-74" y="-344.451" width="328" height="758" rx="9" fill="white" stroke="#DDDDDD" stroke-width="2"/>
<path d="M5.44912 9.27958C5.31786 9.27984 5.18783 9.25419 5.0665 9.20408C4.94518 9.15397 4.83494 9.08039 4.74212 8.98758L0.500123 4.74458C0.40455 4.6524 0.328291 4.54211 0.275798 4.42014C0.223304 4.29817 0.195627 4.16697 0.19438 4.0342C0.193133 3.90142 0.218342 3.76972 0.268536 3.64679C0.31873 3.52386 0.392904 3.41216 0.486729 3.3182C0.580555 3.22424 0.692153 3.14991 0.815012 3.09954C0.937872 3.04918 1.06953 3.02378 1.20231 3.02484C1.33509 3.0259 1.46633 3.05339 1.58837 3.10571C1.71041 3.15803 1.82081 3.23413 1.91312 3.32958L5.44812 6.86458L11.8131 0.501577C12.0006 0.313936 12.255 0.208468 12.5203 0.208374C12.7855 0.20828 13.04 0.313569 13.2276 0.501077C13.4153 0.688585 13.5207 0.942953 13.5208 1.20822C13.5209 1.47349 13.4156 1.72794 13.2281 1.91558L6.15612 8.98758C6.0633 9.08039 5.95307 9.15397 5.83174 9.20408C5.71041 9.25419 5.58039 9.27984 5.44912 9.27958Z" fill="#2FAB73"/>
</g>
<defs>
<linearGradient id="paint0_linear_0_1" x1="470.941" y1="-1553.95" x2="470.941" y2="1229.09" gradientUnits="userSpaceOnUse">
<stop stop-color="#F8F8F8"/>
<stop offset="1" stop-color="#F8F8F8" stop-opacity="0"/>
</linearGradient>
<clipPath id="clip0_0_1">
<rect x="-250" y="-2122" width="1440" height="5189" rx="20" fill="white"/>
</clipPath>
</defs>
</svg>
